<svg width="86" height="30" viewBox="0 0 86 30" fill="none" xmlns="http://www.w3.org/2000/svg">
<path d="M2 13C0.89543 13 0 13.8954 0 15C0 16.1046 0.89543 17 2 17V13ZM85.4142 16.4142C86.1953 15.6332 86.1953 14.3668 85.4142 13.5858L72.6863 0.857864C71.9052 0.0768156 70.6389 0.0768156 69.8579 0.857864C69.0768 1.63891 69.0768 2.90524 69.8579 3.68629L81.1716 15L69.8579 26.3137C69.0768 27.0948 69.0768 28.3611 69.8579 29.1421C70.6389 29.9232 71.9052 29.9232 72.6863 29.1421L85.4142 16.4142ZM2 17H84V13H2V17Z" fill="#AEB4C6"/>
</svg>
