<svg width="240" height="170" viewBox="0 0 240 170" fill="none" xmlns="http://www.w3.org/2000/svg">
<circle cx="120" cy="85" r="85" fill="#1833A4"/>
<path d="M88.7775 84V86.14H92.0575V84H88.7775ZM81.7775 89.58V91.72H83.0375C85.6975 91.72 87.4775 91.68 89.5575 91.32L89.3375 89.2C87.3175 89.54 85.6375 89.58 83.0375 89.58H81.7775ZM81.7775 79.3V90.36H84.2975V81.4H88.6575V79.3H81.7775ZM83.5775 84.28V86.32H87.9575V84.28H83.5775ZM94.6175 77.26V95.78H97.1575V77.26H94.6175ZM90.7975 77.58V94.96H93.2775V77.58H90.7975ZM100.196 79V91.28H109.056V79H100.196ZM106.436 81.08V89.18H102.816V81.08H106.436ZM111.476 77.26V95.78H114.156V77.26H111.476ZM113.556 84.24V86.44H116.836V84.24H113.556ZM122.566 86.4V88.54H139.306V86.4H122.566ZM129.586 84.04V86.86H132.246V84.04H129.586ZM124.426 89.8V91.9H134.626V95.78H137.286V89.8H124.426ZM124.706 77.72V84.88H137.186V77.72H134.546V79.36H127.326V77.72H124.706ZM127.326 81.34H134.546V82.8H127.326V81.34ZM145.124 78.68V81.38C145.124 84.82 143.704 88.38 140.584 89.84L142.184 91.98C145.684 90.26 147.284 85.96 147.284 81.38V78.68H145.124ZM145.664 78.68V81.38C145.664 85.82 147.124 89.94 150.464 91.64L152.064 89.52C149.104 88.08 147.784 84.7 147.784 81.38V78.68H145.664ZM152.804 77.26V95.78H155.484V77.26H152.804ZM154.884 84.38V86.6H158.164V84.38H154.884Z" fill="white"/>
</svg>
