<svg width="140" height="140" viewBox="0 0 140 140" fill="none" xmlns="http://www.w3.org/2000/svg">
<circle cx="70" cy="70" r="70" fill="#1833A4"/>
<path d="M41.8498 69V70.926H44.8018V69H41.8498ZM35.5498 74.022V75.948H36.6838C39.0778 75.948 40.6798 75.912 42.5518 75.588L42.3538 73.68C40.5358 73.986 39.0238 74.022 36.6838 74.022H35.5498ZM35.5498 64.77V74.724H37.8178V66.66H41.7418V64.77H35.5498ZM37.1698 69.252V71.088H41.1118V69.252H37.1698ZM47.1058 62.934V79.602H49.3918V62.934H47.1058ZM43.6678 63.222V78.864H45.8998V63.222H43.6678ZM52.1263 64.5V75.552H60.1003V64.5H52.1263ZM57.7423 66.372V73.662H54.4843V66.372H57.7423ZM62.2783 62.934V79.602H64.6903V62.934H62.2783ZM64.1503 69.216V71.196H67.1023V69.216H64.1503ZM72.2591 71.16V73.086H87.3251V71.16H72.2591ZM78.5771 69.036V71.574H80.9711V69.036H78.5771ZM73.9331 74.22V76.11H83.1131V79.602H85.5071V74.22H73.9331ZM74.1851 63.348V69.792H85.4171V63.348H83.0411V64.824H76.5431V63.348H74.1851ZM76.5431 66.606H83.0411V67.92H76.5431V66.606ZM92.5617 64.212V66.642C92.5617 69.738 91.2837 72.942 88.4757 74.256L89.9157 76.182C93.0657 74.634 94.5057 70.764 94.5057 66.642V64.212H92.5617ZM93.0477 64.212V66.642C93.0477 70.638 94.3617 74.346 97.3677 75.876L98.8077 73.968C96.1437 72.672 94.9557 69.63 94.9557 66.642V64.212H93.0477ZM99.4737 62.934V79.602H101.886V62.934H99.4737ZM101.346 69.342V71.34H104.298V69.342H101.346Z" fill="white"/>
</svg>
