<svg width="240" height="170" viewBox="0 0 240 170" fill="none" xmlns="http://www.w3.org/2000/svg">
<circle cx="120" cy="85" r="85" fill="#1833A4"/>
<path d="M93.4223 64.56V66.68H108.702V64.56H93.4223ZM92.7223 76.78V78.92H109.482V76.78H92.7223ZM99.7423 74.34V77.62H102.382V74.34H99.7423ZM101.042 67.48C97.1823 67.48 94.7623 68.82 94.7623 71.1C94.7623 73.38 97.1823 74.72 101.042 74.72C104.902 74.72 107.322 73.38 107.322 71.1C107.322 68.82 104.902 67.48 101.042 67.48ZM101.042 69.54C103.362 69.54 104.602 70.04 104.602 71.1C104.602 72.16 103.362 72.64 101.042 72.64C98.7223 72.64 97.4823 72.16 97.4823 71.1C97.4823 70.04 98.7223 69.54 101.042 69.54ZM99.7423 62.46V65.88H102.382V62.46H99.7423ZM117.981 63.32V64.66C117.981 67.32 115.681 70.26 111.501 70.98L112.641 73.18C117.441 72.24 120.301 68.68 120.301 64.66V63.32H117.981ZM118.521 63.32V64.66C118.521 68.74 121.361 72.24 126.161 73.18L127.301 70.98C123.101 70.26 120.821 67.38 120.821 64.66V63.32H118.521ZM111.121 76.36V78.52H127.881V76.36H111.121ZM130.519 70.56V72.66H132.099C135.999 72.66 138.339 72.62 140.939 72.18L140.679 70.12C138.139 70.52 135.919 70.56 132.099 70.56H130.519ZM130.519 63.54V71.42H133.159V65.64H139.419V63.54H130.519ZM132.339 67.06V69.1H138.879V67.06H132.339ZM142.219 62.28V73.46H144.899V62.28H142.219ZM138.639 73.74C134.719 73.74 132.299 75.04 132.299 77.26C132.299 79.5 134.719 80.78 138.639 80.78C142.539 80.78 144.979 79.5 144.979 77.26C144.979 75.04 142.539 73.74 138.639 73.74ZM138.639 75.78C141.039 75.78 142.319 76.26 142.319 77.26C142.319 78.28 141.039 78.76 138.639 78.76C136.219 78.76 134.959 78.28 134.959 77.26C134.959 76.26 136.219 75.78 138.639 75.78ZM81.3783 98.04V100.18H86.2583V98.04H81.3783ZM76.3383 93.68V96.36C76.3383 99.88 74.9383 103.46 71.7783 104.92L73.4383 107.06C76.9183 105.32 78.4983 101.02 78.4983 96.36V93.68H76.3383ZM76.8983 93.68V96.36C76.8983 100.98 78.3583 105.06 81.8383 106.74L83.4183 104.62C80.3583 103.26 79.0183 99.88 79.0183 96.36V93.68H76.8983ZM84.9383 92.24V110.82H87.5783V92.24H84.9383ZM103.137 92.24V110.82H105.817V92.24H103.137ZM91.3567 93.72V106.5H100.457V93.72H97.8167V98.22H93.9967V93.72H91.3567ZM93.9967 100.28H97.8167V104.36H93.9967V100.28ZM115.715 93.32V94.66C115.715 97.32 113.415 100.26 109.235 100.98L110.375 103.18C115.175 102.24 118.035 98.68 118.035 94.66V93.32H115.715ZM116.255 93.32V94.66C116.255 98.74 119.095 102.24 123.895 103.18L125.035 100.98C120.835 100.26 118.555 97.38 118.555 94.66V93.32H116.255ZM108.855 106.36V108.52H125.615V106.36H108.855ZM144.485 92.28V105.78H147.165V92.28H144.485ZM134.825 108.34V110.46H147.625V108.34H134.825ZM134.825 104.48V109.44H137.485V104.48H134.825ZM136.105 93.28V95.08C136.105 97.54 134.805 100.12 131.705 101.18L133.045 103.3C136.645 102.04 138.305 98.7 138.305 95.08V93.28H136.105ZM136.645 93.28V95.08C136.645 98.66 138.265 101.8 141.765 102.98L143.125 100.86C140.085 99.88 138.825 97.5 138.825 95.08V93.28H136.645ZM154.323 95.5V96.18C154.323 98.28 153.023 100.4 150.043 101.24L151.283 103.32C154.823 102.3 156.463 99.4 156.463 96.18V95.5H154.323ZM154.823 95.5V96.18C154.823 99.22 156.523 101.92 160.083 102.86L161.283 100.8C158.303 100.02 156.983 98.08 156.983 96.18V95.5H154.823ZM150.683 94.18V96.26H160.623V94.18H150.683ZM154.323 92.2V95H156.983V92.2H154.323ZM160.103 97.2V99.34H163.643V97.2H160.103ZM163.003 92.26V103.44H165.663V92.26H163.003ZM159.383 103.76C155.463 103.76 153.043 105.04 153.043 107.26C153.043 109.48 155.463 110.78 159.383 110.78C163.303 110.78 165.723 109.48 165.723 107.26C165.723 105.04 163.303 103.76 159.383 103.76ZM159.383 105.78C161.823 105.78 163.083 106.26 163.083 107.26C163.083 108.26 161.823 108.76 159.383 108.76C156.963 108.76 155.703 108.26 155.703 107.26C155.703 106.26 156.963 105.78 159.383 105.78Z" fill="white"/>
</svg>
