<svg width="140" height="140" viewBox="0 0 140 140" fill="none" xmlns="http://www.w3.org/2000/svg">
<circle cx="70" cy="70" r="70" fill="#1833A4"/>
<path d="M46.0301 51.004V52.912H59.7821V51.004H46.0301ZM45.4001 62.002V63.928H60.4841V62.002H45.4001ZM51.7181 59.806V62.758H54.0941V59.806H51.7181ZM52.8881 53.632C49.4141 53.632 47.2361 54.838 47.2361 56.89C47.2361 58.942 49.4141 60.148 52.8881 60.148C56.3621 60.148 58.5401 58.942 58.5401 56.89C58.5401 54.838 56.3621 53.632 52.8881 53.632ZM52.8881 55.486C54.9761 55.486 56.0921 55.936 56.0921 56.89C56.0921 57.844 54.9761 58.276 52.8881 58.276C50.8001 58.276 49.6841 57.844 49.6841 56.89C49.6841 55.936 50.8001 55.486 52.8881 55.486ZM51.7181 49.114V52.192H54.0941V49.114H51.7181ZM68.1327 49.888V51.094C68.1327 53.488 66.0627 56.134 62.3007 56.782L63.3267 58.762C67.6467 57.916 70.2207 54.712 70.2207 51.094V49.888H68.1327ZM68.6187 49.888V51.094C68.6187 54.766 71.1747 57.916 75.4947 58.762L76.5207 56.782C72.7407 56.134 70.6887 53.542 70.6887 51.094V49.888H68.6187ZM61.9587 61.624V63.568H77.0427V61.624H61.9587ZM79.4173 56.404V58.294H80.8393C84.3493 58.294 86.4553 58.258 88.7953 57.862L88.5613 56.008C86.2753 56.368 84.2773 56.404 80.8393 56.404H79.4173ZM79.4173 50.086V57.178H81.7933V51.976H87.4273V50.086H79.4173ZM81.0553 53.254V55.09H86.9413V53.254H81.0553ZM89.9473 48.952V59.014H92.3593V48.952H89.9473ZM86.7253 59.266C83.1973 59.266 81.0193 60.436 81.0193 62.434C81.0193 64.45 83.1973 65.602 86.7253 65.602C90.2353 65.602 92.4313 64.45 92.4313 62.434C92.4313 60.436 90.2353 59.266 86.7253 59.266ZM86.7253 61.102C88.8853 61.102 90.0373 61.534 90.0373 62.434C90.0373 63.352 88.8853 63.784 86.7253 63.784C84.5473 63.784 83.4133 63.352 83.4133 62.434C83.4133 61.534 84.5473 61.102 86.7253 61.102ZM35.1905 82.136V84.062H39.5825V82.136H35.1905ZM30.6545 78.212V80.624C30.6545 83.792 29.3945 87.014 26.5505 88.328L28.0445 90.254C31.1765 88.688 32.5985 84.818 32.5985 80.624V78.212H30.6545ZM31.1585 78.212V80.624C31.1585 84.782 32.4725 88.454 35.6045 89.966L37.0265 88.058C34.2725 86.834 33.0665 83.792 33.0665 80.624V78.212H31.1585ZM38.3945 76.916V93.638H40.7705V76.916H38.3945ZM54.773 76.916V93.638H57.185V76.916H54.773ZM44.171 78.248V89.75H52.361V78.248H49.985V82.298H46.547V78.248H44.171ZM46.547 84.152H49.985V87.824H46.547V84.152ZM66.0936 77.888V79.094C66.0936 81.488 64.0236 84.134 60.2616 84.782L61.2876 86.762C65.6076 85.916 68.1816 82.712 68.1816 79.094V77.888H66.0936ZM66.5796 77.888V79.094C66.5796 82.766 69.1356 85.916 73.4556 86.762L74.4816 84.782C70.7016 84.134 68.6496 81.542 68.6496 79.094V77.888H66.5796ZM59.9196 89.624V91.568H75.0036V89.624H59.9196ZM91.9864 76.952V89.102H94.3984V76.952H91.9864ZM83.2924 91.406V93.314H94.8124V91.406H83.2924ZM83.2924 87.932V92.396H85.6864V87.932H83.2924ZM84.4444 77.852V79.472C84.4444 81.686 83.2744 84.008 80.4844 84.962L81.6904 86.87C84.9304 85.736 86.4244 82.73 86.4244 79.472V77.852H84.4444ZM84.9304 77.852V79.472C84.9304 82.694 86.3884 85.52 89.5384 86.582L90.7624 84.674C88.0264 83.792 86.8924 81.65 86.8924 79.472V77.852H84.9304ZM100.841 79.85V80.462C100.841 82.352 99.671 84.26 96.989 85.016L98.105 86.888C101.291 85.97 102.767 83.36 102.767 80.462V79.85H100.841ZM101.291 79.85V80.462C101.291 83.198 102.821 85.628 106.025 86.474L107.105 84.62C104.423 83.918 103.235 82.172 103.235 80.462V79.85H101.291ZM97.565 78.662V80.534H106.511V78.662H97.565ZM100.841 76.88V79.4H103.235V76.88H100.841ZM106.043 81.38V83.306H109.229V81.38H106.043ZM108.653 76.934V86.996H111.047V76.934H108.653ZM105.395 87.284C101.867 87.284 99.689 88.436 99.689 90.434C99.689 92.432 101.867 93.602 105.395 93.602C108.923 93.602 111.101 92.432 111.101 90.434C111.101 88.436 108.923 87.284 105.395 87.284ZM105.395 89.102C107.591 89.102 108.725 89.534 108.725 90.434C108.725 91.334 107.591 91.784 105.395 91.784C103.217 91.784 102.083 91.334 102.083 90.434C102.083 89.534 103.217 89.102 105.395 89.102Z" fill="white"/>
</svg>
