<svg width="140" height="140" viewBox="0 0 140 140" fill="none" xmlns="http://www.w3.org/2000/svg">
<circle cx="70" cy="70" r="70" fill="#1833A4"/>
<path d="M32.9585 64.788V65.274C32.9585 66.984 31.1945 68.856 27.5225 69.306L28.4045 71.178C32.6345 70.602 35.0285 68.208 35.0285 65.274V64.788H32.9585ZM33.6425 64.788V65.274C33.6425 68.208 36.0365 70.602 40.2845 71.178L41.1485 69.306C37.4765 68.856 35.7125 66.984 35.7125 65.274V64.788H33.6425ZM33.0845 73.5V79.62H35.4605V73.5H33.0845ZM26.8025 72.132V74.04H41.8685V72.132H26.8025ZM28.1345 63.78V65.67H40.5005V63.78H28.1345ZM43.343 71.16V73.068H58.427V71.16H43.343ZM49.877 72.366V75.876H52.289V72.366H49.877ZM45.197 63.636V69.828H56.519V63.636H45.197ZM54.161 65.508V67.956H47.537V65.508H54.161ZM45.089 77.406V79.314H56.771V77.406H45.089ZM45.089 74.472V78.036H47.465V74.472H45.089ZM68.3076 68.136V70.062H72.6996V68.136H68.3076ZM63.7716 64.212V66.624C63.7716 69.792 62.5116 73.014 59.6676 74.328L61.1616 76.254C64.2936 74.688 65.7156 70.818 65.7156 66.624V64.212H63.7716ZM64.2756 64.212V66.624C64.2756 70.782 65.5896 74.454 68.7216 75.966L70.1436 74.058C67.3896 72.834 66.1836 69.792 66.1836 66.624V64.212H64.2756ZM71.5116 62.916V79.638H73.8876V62.916H71.5116ZM84.2464 64.644V65.688C84.2464 67.776 83.0764 69.936 80.2864 70.836L81.5284 72.69C84.7144 71.664 86.2084 68.838 86.2084 65.688V64.644H84.2464ZM84.7324 64.644V65.688C84.7324 68.676 86.1724 71.394 89.2864 72.402L90.5104 70.548C87.8104 69.684 86.6764 67.65 86.6764 65.688V64.644H84.7324ZM80.9344 63.906V65.814H89.9344V63.906H80.9344ZM91.2664 62.934V72.978H93.6604V62.934H91.2664ZM92.9944 66.966V68.928H95.8744V66.966H92.9944ZM82.5364 73.698V75.624H91.2664V79.602H93.6604V73.698H82.5364ZM100.967 63.798V65.292C100.967 67.578 99.797 69.828 96.953 70.746L98.195 72.672C101.471 71.574 102.965 68.64 102.965 65.292V63.798H100.967ZM101.471 63.798V65.184C101.471 68.424 102.803 71.106 105.881 72.168L107.123 70.296C104.477 69.45 103.397 67.398 103.397 65.184V63.798H101.471ZM108.653 62.934V72.69H111.047V62.934H108.653ZM105.395 73.122C101.867 73.122 99.689 74.328 99.689 76.362C99.689 78.414 101.867 79.602 105.395 79.602C108.923 79.602 111.101 78.414 111.101 76.362C111.101 74.328 108.923 73.122 105.395 73.122ZM105.395 74.976C107.573 74.976 108.725 75.426 108.725 76.362C108.725 77.298 107.573 77.766 105.395 77.766C103.235 77.766 102.083 77.298 102.083 76.362C102.083 75.426 103.235 74.976 105.395 74.976ZM105.611 65.958V67.902H108.995V65.958H105.611Z" fill="white"/>
</svg>
