<svg width="240" height="170" viewBox="0 0 240 170" fill="none" xmlns="http://www.w3.org/2000/svg">
<circle cx="120" cy="85" r="85" fill="#1833A4"/>
<path d="M78.8983 79.32V79.86C78.8983 81.76 76.9383 83.84 72.8583 84.34L73.8383 86.42C78.5383 85.78 81.1983 83.12 81.1983 79.86V79.32H78.8983ZM79.6583 79.32V79.86C79.6583 83.12 82.3183 85.78 87.0383 86.42L87.9983 84.34C83.9183 83.84 81.9583 81.76 81.9583 79.86V79.32H79.6583ZM79.0383 89V95.8H81.6783V89H79.0383ZM72.0583 87.48V89.6H88.7983V87.48H72.0583ZM73.5383 78.2V80.3H87.2783V78.2H73.5383ZM90.4367 86.4V88.52H107.197V86.4H90.4367ZM97.6967 87.74V91.64H100.377V87.74H97.6967ZM92.4967 78.04V84.92H105.077V78.04H92.4967ZM102.457 80.12V82.84H95.0967V80.12H102.457ZM92.3767 93.34V95.46H105.357V93.34H92.3767ZM92.3767 90.08V94.04H95.0167V90.08H92.3767ZM118.175 83.04V85.18H123.055V83.04H118.175ZM113.135 78.68V81.36C113.135 84.88 111.735 88.46 108.575 89.92L110.235 92.06C113.715 90.32 115.295 86.02 115.295 81.36V78.68H113.135ZM113.695 78.68V81.36C113.695 85.98 115.155 90.06 118.635 91.74L120.215 89.62C117.155 88.26 115.815 84.88 115.815 81.36V78.68H113.695ZM121.735 77.24V95.82H124.375V77.24H121.735ZM135.885 79.16V80.32C135.885 82.64 134.585 85.04 131.485 86.04L132.865 88.1C136.405 86.96 138.065 83.82 138.065 80.32V79.16H135.885ZM136.425 79.16V80.32C136.425 83.64 138.025 86.66 141.485 87.78L142.845 85.72C139.845 84.76 138.585 82.5 138.585 80.32V79.16H136.425ZM132.205 78.34V80.46H142.205V78.34H132.205ZM143.685 77.26V88.42H146.345V77.26H143.685ZM145.605 81.74V83.92H148.805V81.74H145.605ZM133.985 89.22V91.36H143.685V95.78H146.345V89.22H133.985ZM154.463 78.22V79.88C154.463 82.42 153.163 84.92 150.003 85.94L151.383 88.08C155.023 86.86 156.683 83.6 156.683 79.88V78.22H154.463ZM155.023 78.22V79.76C155.023 83.36 156.503 86.34 159.923 87.52L161.303 85.44C158.363 84.5 157.163 82.22 157.163 79.76V78.22H155.023ZM163.003 77.26V88.1H165.663V77.26H163.003ZM159.383 88.58C155.463 88.58 153.043 89.92 153.043 92.18C153.043 94.46 155.463 95.78 159.383 95.78C163.303 95.78 165.723 94.46 165.723 92.18C165.723 89.92 163.303 88.58 159.383 88.58ZM159.383 90.64C161.803 90.64 163.083 91.14 163.083 92.18C163.083 93.22 161.803 93.74 159.383 93.74C156.983 93.74 155.703 93.22 155.703 92.18C155.703 91.14 156.983 90.64 159.383 90.64ZM159.623 80.62V82.78H163.383V80.62H159.623Z" fill="white"/>
</svg>
