<svg width="180" height="180" viewBox="0 0 180 180" fill="none" xmlns="http://www.w3.org/2000/svg">
<g clip-path="url(#clip0_2_373)">
<path d="M104.286 104.286H38.5714V50.0001H44.2857V98.5715H98.5714V44.2858H50V38.5715H104.286V104.286Z" fill="#1B1E26"/>
<path d="M130 141.429H75.7142V75.7144H141.429V130H135.714V81.4286H81.4285V135.714H130V141.429Z" fill="#1B1E26"/>
<path d="M52.8571 52.8571H30V30H52.8571V52.8571ZM35.7143 47.1429H47.1429V35.7143H35.7143V47.1429Z" fill="#405FE0"/>
<path d="M150 52.8571H127.143V30H150V52.8571ZM132.857 47.1429H144.286V35.7143H132.857V47.1429Z" fill="#405FE0"/>
<path d="M150 150H127.143V127.143H150V150ZM132.857 144.286H144.286V132.857H132.857V144.286Z" fill="#405FE0"/>
<path d="M52.8571 150H30V127.143H52.8571V150ZM35.7143 144.286H47.1429V132.857H35.7143V144.286Z" fill="#405FE0"/>
</g>
<defs>
<clipPath id="clip0_2_373">
<rect width="120" height="120" fill="white" transform="translate(30 30)"/>
</clipPath>
</defs>
</svg>
