<svg width="30" height="53" viewBox="0 0 30 53" fill="none" xmlns="http://www.w3.org/2000/svg">
<path d="M17 2.95508C17 1.85051 16.1046 0.955078 15 0.955078C13.8954 0.955078 13 1.85051 13 2.95508L17 2.95508ZM13.5858 52.3693C14.3668 53.1503 15.6332 53.1503 16.4142 52.3693L29.1421 39.6414C29.9232 38.8603 29.9232 37.594 29.1421 36.8129C28.3611 36.0319 27.0948 36.0319 26.3137 36.8129L15 48.1267L3.68629 36.8129C2.90524 36.0319 1.63891 36.0319 0.857863 36.8129C0.0768141 37.594 0.076814 38.8603 0.857863 39.6414L13.5858 52.3693ZM13 2.95508L13 50.9551L17 50.9551L17 2.95508L13 2.95508Z" fill="#C4C6CD"/>
</svg>
