<svg width="86" height="30" viewBox="0 0 86 30" fill="none" xmlns="http://www.w3.org/2000/svg">
<path d="M2 12.9199C0.89543 12.9199 0 13.8154 0 14.9199C0 16.0245 0.89543 16.9199 2 16.9199V12.9199ZM85.4142 16.3341C86.1953 15.5531 86.1953 14.2868 85.4142 13.5057L72.6863 0.777786C71.9052 -0.00326252 70.6389 -0.00326252 69.8579 0.777786C69.0768 1.55884 69.0768 2.82516 69.8579 3.60621L81.1716 14.9199L69.8579 26.2336C69.0768 27.0147 69.0768 28.281 69.8579 29.0621C70.6389 29.8431 71.9052 29.8431 72.6863 29.0621L85.4142 16.3341ZM2 16.9199H84V12.9199H2V16.9199Z" fill="#C4C6CD"/>
</svg>
