<svg width="25" height="25" viewBox="0 0 25 25" fill="none" xmlns="http://www.w3.org/2000/svg">
<path d="M14.75 8.41992H20V9.91992H14.75V8.41992ZM14.75 12.1699H20V13.6699H14.75V12.1699ZM14.75 15.9199H20V17.4199H14.75V15.9199ZM5 8.41992H10.25V9.91992H5V8.41992ZM5 12.1699H10.25V13.6699H5V12.1699ZM5 15.9199H10.25V17.4199H5V15.9199Z" fill="white"/>
<path d="M21.5 4.66992H3.5C3.1023 4.67032 2.721 4.82848 2.43978 5.1097C2.15856 5.39092 2.0004 5.77222 2 6.16992V19.6699C2.0004 20.0676 2.15856 20.4489 2.43978 20.7301C2.721 21.0114 3.1023 21.1695 3.5 21.1699H21.5C21.8977 21.1695 22.279 21.0114 22.5602 20.7301C22.8414 20.4489 22.9996 20.0676 23 19.6699V6.16992C22.9996 5.77222 22.8414 5.39092 22.5602 5.1097C22.279 4.82848 21.8977 4.67032 21.5 4.66992ZM3.5 6.16992H11.75V19.6699H3.5V6.16992ZM13.25 19.6699V6.16992H21.5V19.6699H13.25Z" fill="white"/>
</svg>
