<svg width="140" height="141" viewBox="0 0 140 141" fill="none" xmlns="http://www.w3.org/2000/svg">
<circle cx="70" cy="70.9551" r="70" fill="#54B1FA"/>
<path d="M46.0301 51.9591V53.8671H59.7821V51.9591H46.0301ZM45.4001 62.9571V64.8831H60.4841V62.9571H45.4001ZM51.7181 60.7611V63.7131H54.0941V60.7611H51.7181ZM52.8881 54.5871C49.4141 54.5871 47.2361 55.7931 47.2361 57.8451C47.2361 59.8971 49.4141 61.1031 52.8881 61.1031C56.3621 61.1031 58.5401 59.8971 58.5401 57.8451C58.5401 55.7931 56.3621 54.5871 52.8881 54.5871ZM52.8881 56.4411C54.9761 56.4411 56.0921 56.8911 56.0921 57.8451C56.0921 58.7991 54.9761 59.2311 52.8881 59.2311C50.8001 59.2311 49.6841 58.7991 49.6841 57.8451C49.6841 56.8911 50.8001 56.4411 52.8881 56.4411ZM51.7181 50.0691V53.1471H54.0941V50.0691H51.7181ZM68.1327 50.8431V52.0491C68.1327 54.4431 66.0627 57.0891 62.3007 57.7371L63.3267 59.7171C67.6467 58.8711 70.2207 55.6671 70.2207 52.0491V50.8431H68.1327ZM68.6187 50.8431V52.0491C68.6187 55.7211 71.1747 58.8711 75.4947 59.7171L76.5207 57.7371C72.7407 57.0891 70.6887 54.4971 70.6887 52.0491V50.8431H68.6187ZM61.9587 62.5791V64.5231H77.0427V62.5791H61.9587ZM79.4173 57.3591V59.2491H80.8393C84.3493 59.2491 86.4553 59.2131 88.7953 58.8171L88.5613 56.9631C86.2753 57.3231 84.2773 57.3591 80.8393 57.3591H79.4173ZM79.4173 51.0411V58.1331H81.7933V52.9311H87.4273V51.0411H79.4173ZM81.0553 54.2091V56.0451H86.9413V54.2091H81.0553ZM89.9473 49.9071V59.9691H92.3593V49.9071H89.9473ZM86.7253 60.2211C83.1973 60.2211 81.0193 61.3911 81.0193 63.3891C81.0193 65.4051 83.1973 66.5571 86.7253 66.5571C90.2353 66.5571 92.4313 65.4051 92.4313 63.3891C92.4313 61.3911 90.2353 60.2211 86.7253 60.2211ZM86.7253 62.0571C88.8853 62.0571 90.0373 62.4891 90.0373 63.3891C90.0373 64.3071 88.8853 64.7391 86.7253 64.7391C84.5473 64.7391 83.4133 64.3071 83.4133 63.3891C83.4133 62.4891 84.5473 62.0571 86.7253 62.0571ZM35.1905 83.0911V85.0171H39.5825V83.0911H35.1905ZM30.6545 79.1671V81.5791C30.6545 84.7471 29.3945 87.9691 26.5505 89.2831L28.0445 91.2091C31.1765 89.6431 32.5985 85.7731 32.5985 81.5791V79.1671H30.6545ZM31.1585 79.1671V81.5791C31.1585 85.7371 32.4725 89.4091 35.6045 90.9211L37.0265 89.0131C34.2725 87.7891 33.0665 84.7471 33.0665 81.5791V79.1671H31.1585ZM38.3945 77.8711V94.5931H40.7705V77.8711H38.3945ZM54.773 77.8711V94.5931H57.185V77.8711H54.773ZM44.171 79.2031V90.7051H52.361V79.2031H49.985V83.2531H46.547V79.2031H44.171ZM46.547 85.1071H49.985V88.7791H46.547V85.1071ZM66.0936 78.8431V80.0491C66.0936 82.4431 64.0236 85.0891 60.2616 85.7371L61.2876 87.7171C65.6076 86.8711 68.1816 83.6671 68.1816 80.0491V78.8431H66.0936ZM66.5796 78.8431V80.0491C66.5796 83.7211 69.1356 86.8711 73.4556 87.7171L74.4816 85.7371C70.7016 85.0891 68.6496 82.4971 68.6496 80.0491V78.8431H66.5796ZM59.9196 90.5791V92.5231H75.0036V90.5791H59.9196ZM91.9864 77.9071V90.0571H94.3984V77.9071H91.9864ZM83.2924 92.3611V94.2691H94.8124V92.3611H83.2924ZM83.2924 88.8871V93.3511H85.6864V88.8871H83.2924ZM84.4444 78.8071V80.4271C84.4444 82.6411 83.2744 84.9631 80.4844 85.9171L81.6904 87.8251C84.9304 86.6911 86.4244 83.6851 86.4244 80.4271V78.8071H84.4444ZM84.9304 78.8071V80.4271C84.9304 83.6491 86.3884 86.4751 89.5384 87.5371L90.7624 85.6291C88.0264 84.7471 86.8924 82.6051 86.8924 80.4271V78.8071H84.9304ZM100.841 80.8051V81.4171C100.841 83.3071 99.671 85.2151 96.989 85.9711L98.105 87.8431C101.291 86.9251 102.767 84.3151 102.767 81.4171V80.8051H100.841ZM101.291 80.8051V81.4171C101.291 84.1531 102.821 86.5831 106.025 87.4291L107.105 85.5751C104.423 84.8731 103.235 83.1271 103.235 81.4171V80.8051H101.291ZM97.565 79.6171V81.4891H106.511V79.6171H97.565ZM100.841 77.8351V80.3551H103.235V77.8351H100.841ZM106.043 82.3351V84.2611H109.229V82.3351H106.043ZM108.653 77.8891V87.9511H111.047V77.8891H108.653ZM105.395 88.2391C101.867 88.2391 99.689 89.3911 99.689 91.3891C99.689 93.3871 101.867 94.5571 105.395 94.5571C108.923 94.5571 111.101 93.3871 111.101 91.3891C111.101 89.3911 108.923 88.2391 105.395 88.2391ZM105.395 90.0571C107.591 90.0571 108.725 90.4891 108.725 91.3891C108.725 92.2891 107.591 92.7391 105.395 92.7391C103.217 92.7391 102.083 92.2891 102.083 91.3891C102.083 90.4891 103.217 90.0571 105.395 90.0571Z" fill="white"/>
</svg>
