<svg width="240" height="171" viewBox="0 0 240 171" fill="none" xmlns="http://www.w3.org/2000/svg">
<circle cx="120" cy="85.9199" r="85" fill="#2196F3"/>
<path d="M78.8983 80.2399V80.7799C78.8983 82.6799 76.9383 84.7599 72.8583 85.2599L73.8383 87.3399C78.5383 86.6999 81.1983 84.0399 81.1983 80.7799V80.2399H78.8983ZM79.6583 80.2399V80.7799C79.6583 84.0399 82.3183 86.6999 87.0383 87.3399L87.9983 85.2599C83.9183 84.7599 81.9583 82.6799 81.9583 80.7799V80.2399H79.6583ZM79.0383 89.9199V96.7199H81.6783V89.9199H79.0383ZM72.0583 88.3999V90.5199H88.7983V88.3999H72.0583ZM73.5383 79.1199V81.2199H87.2783V79.1199H73.5383ZM90.4367 87.3199V89.4399H107.197V87.3199H90.4367ZM97.6967 88.6599V92.5599H100.377V88.6599H97.6967ZM92.4967 78.9599V85.8399H105.077V78.9599H92.4967ZM102.457 81.0399V83.7599H95.0967V81.0399H102.457ZM92.3767 94.2599V96.3799H105.357V94.2599H92.3767ZM92.3767 90.9999V94.9599H95.0167V90.9999H92.3767ZM118.175 83.9599V86.0999H123.055V83.9599H118.175ZM113.135 79.5999V82.2799C113.135 85.7999 111.735 89.3799 108.575 90.8399L110.235 92.9799C113.715 91.2399 115.295 86.9399 115.295 82.2799V79.5999H113.135ZM113.695 79.5999V82.2799C113.695 86.8999 115.155 90.9799 118.635 92.6599L120.215 90.5399C117.155 89.1799 115.815 85.7999 115.815 82.2799V79.5999H113.695ZM121.735 78.1599V96.7399H124.375V78.1599H121.735ZM135.885 80.0799V81.2399C135.885 83.5599 134.585 85.9599 131.485 86.9599L132.865 89.0199C136.405 87.8799 138.065 84.7399 138.065 81.2399V80.0799H135.885ZM136.425 80.0799V81.2399C136.425 84.5599 138.025 87.5799 141.485 88.6999L142.845 86.6399C139.845 85.6799 138.585 83.4199 138.585 81.2399V80.0799H136.425ZM132.205 79.2599V81.3799H142.205V79.2599H132.205ZM143.685 78.1799V89.3399H146.345V78.1799H143.685ZM145.605 82.6599V84.8399H148.805V82.6599H145.605ZM133.985 90.1399V92.2799H143.685V96.6999H146.345V90.1399H133.985ZM154.463 79.1399V80.7999C154.463 83.3399 153.163 85.8399 150.003 86.8599L151.383 88.9999C155.023 87.7799 156.683 84.5199 156.683 80.7999V79.1399H154.463ZM155.023 79.1399V80.6799C155.023 84.2799 156.503 87.2599 159.923 88.4399L161.303 86.3599C158.363 85.4199 157.163 83.1399 157.163 80.6799V79.1399H155.023ZM163.003 78.1799V89.0199H165.663V78.1799H163.003ZM159.383 89.4999C155.463 89.4999 153.043 90.8399 153.043 93.0999C153.043 95.3799 155.463 96.6999 159.383 96.6999C163.303 96.6999 165.723 95.3799 165.723 93.0999C165.723 90.8399 163.303 89.4999 159.383 89.4999ZM159.383 91.5599C161.803 91.5599 163.083 92.0599 163.083 93.0999C163.083 94.1399 161.803 94.6599 159.383 94.6599C156.983 94.6599 155.703 94.1399 155.703 93.0999C155.703 92.0599 156.983 91.5599 159.383 91.5599ZM159.623 81.5399V83.6999H163.383V81.5399H159.623Z" fill="white"/>
</svg>
