<svg width="140" height="141" viewBox="0 0 140 141" fill="none" xmlns="http://www.w3.org/2000/svg">
<circle cx="70" cy="70.9551" r="70" fill="#037BEB"/>
<path d="M41.8498 69.9551V71.8811H44.8018V69.9551H41.8498ZM35.5498 74.9771V76.9031H36.6838C39.0778 76.9031 40.6798 76.8671 42.5518 76.5431L42.3538 74.6351C40.5358 74.9411 39.0238 74.9771 36.6838 74.9771H35.5498ZM35.5498 65.7251V75.6791H37.8178V67.6151H41.7418V65.7251H35.5498ZM37.1698 70.2071V72.0431H41.1118V70.2071H37.1698ZM47.1058 63.8891V80.5571H49.3918V63.8891H47.1058ZM43.6678 64.1771V79.8191H45.8998V64.1771H43.6678ZM52.1263 65.4551V76.5071H60.1003V65.4551H52.1263ZM57.7423 67.3271V74.6171H54.4843V67.3271H57.7423ZM62.2783 63.8891V80.5571H64.6903V63.8891H62.2783ZM64.1503 70.1711V72.1511H67.1023V70.1711H64.1503ZM72.2591 72.1151V74.0411H87.3251V72.1151H72.2591ZM78.5771 69.9911V72.5291H80.9711V69.9911H78.5771ZM73.9331 75.1751V77.0651H83.1131V80.5571H85.5071V75.1751H73.9331ZM74.1851 64.3031V70.7471H85.4171V64.3031H83.0411V65.7791H76.5431V64.3031H74.1851ZM76.5431 67.5611H83.0411V68.8751H76.5431V67.5611ZM92.5617 65.1671V67.5971C92.5617 70.6931 91.2837 73.8971 88.4757 75.2111L89.9157 77.1371C93.0657 75.5891 94.5057 71.7191 94.5057 67.5971V65.1671H92.5617ZM93.0477 65.1671V67.5971C93.0477 71.5931 94.3617 75.3011 97.3677 76.8311L98.8077 74.9231C96.1437 73.6271 94.9557 70.5851 94.9557 67.5971V65.1671H93.0477ZM99.4737 63.8891V80.5571H101.886V63.8891H99.4737ZM101.346 70.2971V72.2951H104.298V70.2971H101.346Z" fill="white"/>
</svg>
