<svg width="240" height="171" viewBox="0 0 240 171" fill="none" xmlns="http://www.w3.org/2000/svg">
<circle cx="120" cy="85.9199" r="85" fill="#037BEB"/>
<path d="M88.7775 84.9199V87.0599H92.0575V84.9199H88.7775ZM81.7775 90.4999V92.6399H83.0375C85.6975 92.6399 87.4775 92.5999 89.5575 92.2399L89.3375 90.1199C87.3175 90.4599 85.6375 90.4999 83.0375 90.4999H81.7775ZM81.7775 80.2199V91.2799H84.2975V82.3199H88.6575V80.2199H81.7775ZM83.5775 85.1999V87.2399H87.9575V85.1999H83.5775ZM94.6175 78.1799V96.6999H97.1575V78.1799H94.6175ZM90.7975 78.4999V95.8799H93.2775V78.4999H90.7975ZM100.196 79.9199V92.1999H109.056V79.9199H100.196ZM106.436 81.9999V90.0999H102.816V81.9999H106.436ZM111.476 78.1799V96.6999H114.156V78.1799H111.476ZM113.556 85.1599V87.3599H116.836V85.1599H113.556ZM122.566 87.3199V89.4599H139.306V87.3199H122.566ZM129.586 84.9599V87.7799H132.246V84.9599H129.586ZM124.426 90.7199V92.8199H134.626V96.6999H137.286V90.7199H124.426ZM124.706 78.6399V85.7999H137.186V78.6399H134.546V80.2799H127.326V78.6399H124.706ZM127.326 82.2599H134.546V83.7199H127.326V82.2599ZM145.124 79.5999V82.2999C145.124 85.7399 143.704 89.2999 140.584 90.7599L142.184 92.8999C145.684 91.1799 147.284 86.8799 147.284 82.2999V79.5999H145.124ZM145.664 79.5999V82.2999C145.664 86.7399 147.124 90.8599 150.464 92.5599L152.064 90.4399C149.104 88.9999 147.784 85.6199 147.784 82.2999V79.5999H145.664ZM152.804 78.1799V96.6999H155.484V78.1799H152.804ZM154.884 85.2999V87.5199H158.164V85.2999H154.884Z" fill="white"/>
</svg>