<svg width="240" height="171" viewBox="0 0 240 171" fill="none" xmlns="http://www.w3.org/2000/svg">
<circle cx="120" cy="85.9199" r="85" fill="#54B1FA"/>
<path d="M93.4223 65.4799V67.5999H108.702V65.4799H93.4223ZM92.7223 77.6999V79.8399H109.482V77.6999H92.7223ZM99.7423 75.2599V78.5399H102.382V75.2599H99.7423ZM101.042 68.3999C97.1823 68.3999 94.7623 69.7399 94.7623 72.0199C94.7623 74.2999 97.1823 75.6399 101.042 75.6399C104.902 75.6399 107.322 74.2999 107.322 72.0199C107.322 69.7399 104.902 68.3999 101.042 68.3999ZM101.042 70.4599C103.362 70.4599 104.602 70.9599 104.602 72.0199C104.602 73.0799 103.362 73.5599 101.042 73.5599C98.7223 73.5599 97.4823 73.0799 97.4823 72.0199C97.4823 70.9599 98.7223 70.4599 101.042 70.4599ZM99.7423 63.3799V66.7999H102.382V63.3799H99.7423ZM117.981 64.2399V65.5799C117.981 68.2399 115.681 71.1799 111.501 71.8999L112.641 74.0999C117.441 73.1599 120.301 69.5999 120.301 65.5799V64.2399H117.981ZM118.521 64.2399V65.5799C118.521 69.6599 121.361 73.1599 126.161 74.0999L127.301 71.8999C123.101 71.1799 120.821 68.2999 120.821 65.5799V64.2399H118.521ZM111.121 77.2799V79.4399H127.881V77.2799H111.121ZM130.519 71.4799V73.5799H132.099C135.999 73.5799 138.339 73.5399 140.939 73.0999L140.679 71.0399C138.139 71.4399 135.919 71.4799 132.099 71.4799H130.519ZM130.519 64.4599V72.3399H133.159V66.5599H139.419V64.4599H130.519ZM132.339 67.9799V70.0199H138.879V67.9799H132.339ZM142.219 63.1999V74.3799H144.899V63.1999H142.219ZM138.639 74.6599C134.719 74.6599 132.299 75.9599 132.299 78.1799C132.299 80.4199 134.719 81.6999 138.639 81.6999C142.539 81.6999 144.979 80.4199 144.979 78.1799C144.979 75.9599 142.539 74.6599 138.639 74.6599ZM138.639 76.6999C141.039 76.6999 142.319 77.1799 142.319 78.1799C142.319 79.1999 141.039 79.6799 138.639 79.6799C136.219 79.6799 134.959 79.1999 134.959 78.1799C134.959 77.1799 136.219 76.6999 138.639 76.6999ZM81.3783 98.9599V101.1H86.2583V98.9599H81.3783ZM76.3383 94.5999V97.2799C76.3383 100.8 74.9383 104.38 71.7783 105.84L73.4383 107.98C76.9183 106.24 78.4983 101.94 78.4983 97.2799V94.5999H76.3383ZM76.8983 94.5999V97.2799C76.8983 101.9 78.3583 105.98 81.8383 107.66L83.4183 105.54C80.3583 104.18 79.0183 100.8 79.0183 97.2799V94.5999H76.8983ZM84.9383 93.1599V111.74H87.5783V93.1599H84.9383ZM103.137 93.1599V111.74H105.817V93.1599H103.137ZM91.3567 94.6399V107.42H100.457V94.6399H97.8167V99.1399H93.9967V94.6399H91.3567ZM93.9967 101.2H97.8167V105.28H93.9967V101.2ZM115.715 94.2399V95.5799C115.715 98.2399 113.415 101.18 109.235 101.9L110.375 104.1C115.175 103.16 118.035 99.5999 118.035 95.5799V94.2399H115.715ZM116.255 94.2399V95.5799C116.255 99.6599 119.095 103.16 123.895 104.1L125.035 101.9C120.835 101.18 118.555 98.2999 118.555 95.5799V94.2399H116.255ZM108.855 107.28V109.44H125.615V107.28H108.855ZM144.485 93.1999V106.7H147.165V93.1999H144.485ZM134.825 109.26V111.38H147.625V109.26H134.825ZM134.825 105.4V110.36H137.485V105.4H134.825ZM136.105 94.1999V95.9999C136.105 98.4599 134.805 101.04 131.705 102.1L133.045 104.22C136.645 102.96 138.305 99.6199 138.305 95.9999V94.1999H136.105ZM136.645 94.1999V95.9999C136.645 99.5799 138.265 102.72 141.765 103.9L143.125 101.78C140.085 100.8 138.825 98.4199 138.825 95.9999V94.1999H136.645ZM154.323 96.4199V97.0999C154.323 99.1999 153.023 101.32 150.043 102.16L151.283 104.24C154.823 103.22 156.463 100.32 156.463 97.0999V96.4199H154.323ZM154.823 96.4199V97.0999C154.823 100.14 156.523 102.84 160.083 103.78L161.283 101.72C158.303 100.94 156.983 98.9999 156.983 97.0999V96.4199H154.823ZM150.683 95.0999V97.1799H160.623V95.0999H150.683ZM154.323 93.1199V95.9199H156.983V93.1199H154.323ZM160.103 98.1199V100.26H163.643V98.1199H160.103ZM163.003 93.1799V104.36H165.663V93.1799H163.003ZM159.383 104.68C155.463 104.68 153.043 105.96 153.043 108.18C153.043 110.4 155.463 111.7 159.383 111.7C163.303 111.7 165.723 110.4 165.723 108.18C165.723 105.96 163.303 104.68 159.383 104.68ZM159.383 106.7C161.823 106.7 163.083 107.18 163.083 108.18C163.083 109.18 161.823 109.68 159.383 109.68C156.963 109.68 155.703 109.18 155.703 108.18C155.703 107.18 156.963 106.7 159.383 106.7Z" fill="white"/>
</svg>
