<svg width="140" height="141" viewBox="0 0 140 141" fill="none" xmlns="http://www.w3.org/2000/svg">
<circle cx="70" cy="70.9551" r="70" fill="#2196F3"/>
<path d="M32.9585 65.7431V66.2291C32.9585 67.9391 31.1945 69.8111 27.5225 70.2611L28.4045 72.1331C32.6345 71.5571 35.0285 69.1631 35.0285 66.2291V65.7431H32.9585ZM33.6425 65.7431V66.2291C33.6425 69.1631 36.0365 71.5571 40.2845 72.1331L41.1485 70.2611C37.4765 69.8111 35.7125 67.9391 35.7125 66.2291V65.7431H33.6425ZM33.0845 74.4551V80.5751H35.4605V74.4551H33.0845ZM26.8025 73.0871V74.9951H41.8685V73.0871H26.8025ZM28.1345 64.7351V66.6251H40.5005V64.7351H28.1345ZM43.343 72.1151V74.0231H58.427V72.1151H43.343ZM49.877 73.3211V76.8311H52.289V73.3211H49.877ZM45.197 64.5911V70.7831H56.519V64.5911H45.197ZM54.161 66.4631V68.9111H47.537V66.4631H54.161ZM45.089 78.3611V80.2691H56.771V78.3611H45.089ZM45.089 75.4271V78.9911H47.465V75.4271H45.089ZM68.3076 69.0911V71.0171H72.6996V69.0911H68.3076ZM63.7716 65.1671V67.5791C63.7716 70.7471 62.5116 73.9691 59.6676 75.2831L61.1616 77.2091C64.2936 75.6431 65.7156 71.7731 65.7156 67.5791V65.1671H63.7716ZM64.2756 65.1671V67.5791C64.2756 71.7371 65.5896 75.4091 68.7216 76.9211L70.1436 75.0131C67.3896 73.7891 66.1836 70.7471 66.1836 67.5791V65.1671H64.2756ZM71.5116 63.8711V80.5931H73.8876V63.8711H71.5116ZM84.2464 65.5991V66.6431C84.2464 68.7311 83.0764 70.8911 80.2864 71.7911L81.5284 73.6451C84.7144 72.6191 86.2084 69.7931 86.2084 66.6431V65.5991H84.2464ZM84.7324 65.5991V66.6431C84.7324 69.6311 86.1724 72.3491 89.2864 73.3571L90.5104 71.5031C87.8104 70.6391 86.6764 68.6051 86.6764 66.6431V65.5991H84.7324ZM80.9344 64.8611V66.7691H89.9344V64.8611H80.9344ZM91.2664 63.8891V73.9331H93.6604V63.8891H91.2664ZM92.9944 67.9211V69.8831H95.8744V67.9211H92.9944ZM82.5364 74.6531V76.5791H91.2664V80.5571H93.6604V74.6531H82.5364ZM100.967 64.7531V66.2471C100.967 68.5331 99.797 70.7831 96.953 71.7011L98.195 73.6271C101.471 72.5291 102.965 69.5951 102.965 66.2471V64.7531H100.967ZM101.471 64.7531V66.1391C101.471 69.3791 102.803 72.0611 105.881 73.1231L107.123 71.2511C104.477 70.4051 103.397 68.3531 103.397 66.1391V64.7531H101.471ZM108.653 63.8891V73.6451H111.047V63.8891H108.653ZM105.395 74.0771C101.867 74.0771 99.689 75.2831 99.689 77.3171C99.689 79.3691 101.867 80.5571 105.395 80.5571C108.923 80.5571 111.101 79.3691 111.101 77.3171C111.101 75.2831 108.923 74.0771 105.395 74.0771ZM105.395 75.9311C107.573 75.9311 108.725 76.3811 108.725 77.3171C108.725 78.2531 107.573 78.7211 105.395 78.7211C103.235 78.7211 102.083 78.2531 102.083 77.3171C102.083 76.3811 103.235 75.9311 105.395 75.9311ZM105.611 66.9131V68.8571H108.995V66.9131H105.611Z" fill="white"/>
</svg>
