<svg width="140" height="141" viewBox="0 0 140 141" fill="none" xmlns="http://www.w3.org/2000/svg">
<g clip-path="url(#clip0_4_382)">
<path d="M118 39.7532H106.125V43.7116H118V39.7532Z" fill="#1B1E26"/>
<path d="M102.167 107.045H98.2083V118.92H102.167V107.045Z" fill="#1B1E26"/>
<path d="M34.875 99.1282H23V103.087H34.875V99.1282Z" fill="#1B1E26"/>
<path d="M42.7916 23.9199H38.8333V35.7949H42.7916V23.9199Z" fill="#1B1E26"/>
<path d="M100.188 39.7532H23V43.7116H100.188V39.7532Z" fill="#1B1E26"/>
<path d="M86.3333 66.6501L76.4375 76.546L60.6042 60.7126L40.8125 80.5043V101.107H100.188V80.5043L86.3333 66.6501Z" fill="#0C89FB"/>
<path d="M118 99.1282H40.8125V103.087H118V99.1282Z" fill="#1B1E26"/>
<path d="M102.167 23.9199H98.2083V101.107H102.167V23.9199Z" fill="#1B1E26"/>
<path d="M42.7916 41.7324H38.8333V118.92H42.7916V41.7324Z" fill="#1B1E26"/>
</g>
<defs>
<clipPath id="clip0_4_382">
<rect width="95" height="95" fill="white" transform="translate(23 23.9199)"/>
</clipPath>
</defs>
</svg>
