<svg width="140" height="141" viewBox="0 0 140 141" fill="none" xmlns="http://www.w3.org/2000/svg">
<g clip-path="url(#clip0_4_425)">
<path d="M81.8095 82.7295H29.7857V39.7533H34.3095V78.2057H77.2857V35.2295H38.8333V30.7057H81.8095V82.7295Z" fill="#1B1E26"/>
<path d="M102.167 112.134H59.1905V60.1104H111.214V103.087H106.69V64.6342H63.7143V107.61H102.167V112.134Z" fill="#1B1E26"/>
<path d="M41.0952 42.0152H23V23.9199H41.0952V42.0152ZM27.5238 37.4914H36.5714V28.4437H27.5238V37.4914Z" fill="#0C89FB"/>
<path d="M118 42.0152H99.9048V23.9199H118V42.0152ZM104.429 37.4914H113.476V28.4437H104.429V37.4914Z" fill="#0C89FB"/>
<path d="M118 118.92H99.9048V100.825H118V118.92ZM104.429 114.396H113.476V105.349H104.429V114.396Z" fill="#0C89FB"/>
<path d="M41.0952 118.92H23V100.825H41.0952V118.92ZM27.5238 114.396H36.5714V105.349H27.5238V114.396Z" fill="#0C89FB"/>
</g>
<defs>
<clipPath id="clip0_4_425">
<rect width="95" height="95" fill="white" transform="translate(23 23.9199)"/>
</clipPath>
</defs>
</svg>
