<svg width="20" height="21" viewBox="0 0 20 21" fill="none" xmlns="http://www.w3.org/2000/svg">
<path d="M19.5 10.5C19.5 15.7467 15.2467 20 10 20C4.7533 20 0.5 15.7467 0.5 10.5C0.5 5.2533 4.7533 1 10 1C15.2467 1 19.5 5.2533 19.5 10.5Z" fill="white" stroke="#D6DAE1"/>
<path d="M3.36328 7.89565L5.26995 5.03564L3.36328 7.89565ZM4.07828 8.37231L5.98495 5.51231L4.07828 8.37231ZM4.79328 8.84898L6.69995 5.98898L4.79328 8.84898Z" fill="black"/>
<path d="M5.03167 9.00688L4.555 8.68833L6.46167 5.82833L6.93833 6.14688L5.03167 9.00688ZM4.31667 8.53021L3.84 8.21167L5.74667 5.35167L6.22333 5.67021L4.31667 8.53021ZM3.60167 8.05354L3.125 7.735L5.03167 4.875L5.50833 5.19354L3.60167 8.05354Z" fill="black"/>
<path d="M13.8496 14.8854L15.7563 12.0254L13.8496 14.8854ZM14.5646 15.3621L16.4713 12.5021L14.5646 15.3621ZM15.2796 15.8387L17.1863 12.9787L15.2796 15.8387Z" fill="black"/>
<path d="M15.518 15.9991L15.0413 15.6805L16.948 12.8205L17.4247 13.1391L15.518 15.9991ZM14.803 15.5224L14.3263 15.2039L16.233 12.3439L16.7097 12.6624L14.803 15.5224ZM14.088 15.0457L13.6113 14.7272L15.518 11.8672L15.9947 12.1857L14.088 15.0457Z" fill="black"/>
<path d="M14.3267 13.1392L16.71 14.7273L14.3267 13.1392Z" fill="black"/>
<path d="M14.4065 13.0175L14.2476 13.2559L16.6312 14.8448L16.7901 14.6065L14.4065 13.0175Z" fill="white"/>
<path d="M10.2749 13.8745C12.1734 13.8745 13.7124 12.3355 13.7124 10.437C13.7124 8.53853 12.1734 6.99951 10.2749 6.99951C8.37642 6.99951 6.8374 8.53853 6.8374 10.437C6.8374 12.3355 8.37642 13.8745 10.2749 13.8745Z" fill="#CD2E3A"/>
<path d="M7.41493 8.53027C6.88784 9.3209 7.10097 10.3865 7.89159 10.9136C8.68222 11.4407 9.74784 11.2276 10.2749 10.4369C10.802 9.64631 11.8676 9.43319 12.6583 9.96027C13.4489 10.4874 13.662 11.553 13.1349 12.3436C12.0808 13.9226 9.94722 14.3511 8.36826 13.2969C6.7893 12.2428 6.36076 10.1092 7.41493 8.53027Z" fill="#0047A0"/>
<path d="M5.26995 15.8387L3.36328 12.9787L5.26995 15.8387ZM5.98495 15.3621L4.07828 12.5021L5.98495 15.3621ZM6.69995 14.8854L4.79328 12.0254L6.69995 14.8854Z" fill="black"/>
<path d="M5.03167 15.9991L3.125 13.1391L3.60167 12.8205L5.50833 15.6805L5.03167 15.9991ZM5.74667 15.5224L3.84 12.6624L4.31667 12.3439L6.22333 15.2039L5.74667 15.5224ZM6.46167 15.0457L4.555 12.1857L5.03167 11.8672L6.93833 14.7272L6.46167 15.0457Z" fill="black"/>
<path d="M15.7563 8.84898L13.8496 5.98898L15.7563 8.84898ZM16.4713 8.37231L14.5646 5.51231L16.4713 8.37231ZM17.1863 7.89565L15.2796 5.03564L17.1863 7.89565Z" fill="black"/>
<path d="M15.518 9.00688L13.6113 6.14688L14.088 5.82833L15.9947 8.68833L15.518 9.00688ZM16.233 8.53021L14.3263 5.67021L14.803 5.35167L16.7097 8.21167L16.233 8.53021ZM16.948 8.05354L15.0413 5.19354L15.518 4.875L17.4247 7.735L16.948 8.05354Z" fill="black"/>
<path d="M4.67383 14.17L5.38883 13.6933L4.67383 14.17ZM14.3263 7.73497L15.1605 7.17809L14.3263 7.73497ZM15.8755 6.70372L16.5905 6.22705L15.8755 6.70372Z" fill="black"/>
<path d="M4.75383 14.2896L4.5957 14.0513L5.3107 13.5746L5.46883 13.813L4.75383 14.2896ZM14.4063 7.85465L14.2482 7.61631L15.0824 7.05944L15.2405 7.29777L14.4063 7.85465ZM15.9555 6.8234L15.7974 6.58506L16.5124 6.1084L16.6705 6.34673L15.9555 6.8234Z" fill="white"/>
</svg>
