<svg width="16" height="14" viewBox="0 0 16 14" fill="none" xmlns="http://www.w3.org/2000/svg">
<path d="M13.3331 1.1665H6.22201V3.11095H7.11089V1.94428H13.3331C13.5998 1.94428 13.7776 2.09984 13.7776 2.33317V6.61095C13.7776 6.84428 13.5998 6.99984 13.3331 6.99984H7.55534V9.72206H5.19978L3.55534 10.8498V9.72206H2.22201C1.95534 9.72206 1.77756 9.5665 1.77756 9.33317V5.05539C1.77756 4.82206 1.95534 4.6665 2.22201 4.6665H7.99978V3.88873H2.22201C1.46645 3.88873 0.888672 4.39428 0.888672 5.05539V9.33317C0.888672 9.99428 1.46645 10.4998 2.22201 10.4998H2.66645V12.4832L5.46645 10.4998H8.44423V7.77762H13.3331C14.0887 7.77762 14.6664 7.27206 14.6664 6.61095V2.33317C14.6664 1.67206 14.0887 1.1665 13.3331 1.1665Z" fill="#9BA9C6"/>
<path d="M2.75537 8.90545H3.82204L4.0887 8.28322H5.46648L5.73315 8.90545H6.79982L5.2887 5.44434H4.22204L2.75537 8.90545ZM4.75537 6.41656L5.19982 7.62211H4.31093L4.75537 6.41656Z" fill="#9BA9C6"/>
<path d="M8.88867 6.61127C9.37756 6.61127 10.0442 6.49461 10.6664 6.22238C11.2887 6.49461 11.9998 6.61127 12.4442 6.61127V5.8335C12.4442 5.8335 11.9998 5.8335 11.5109 5.67794C12.0442 5.21127 12.4442 4.51127 12.4442 3.50016V3.11127H11.1109V2.3335H10.222V3.11127H8.88867V3.88905H11.5109C11.422 4.58905 11.0664 5.01683 10.6664 5.28905C10.3998 5.09461 10.1331 4.82238 9.95534 4.47238H9.022C9.19978 4.97794 9.46645 5.36683 9.82201 5.67794C9.37756 5.8335 8.97756 5.8335 8.88867 5.8335V6.61127Z" fill="#9BA9C6"/>
</svg>
