<svg width="14" height="14" viewBox="0 0 14 14" fill="none" xmlns="http://www.w3.org/2000/svg">
<path d="M8.3125 4.375H11.375V5.25H8.3125V4.375Z" fill="#9BA9C6"/>
<path d="M8.3125 6.5625H11.375V7.4375H8.3125V6.5625Z" fill="#9BA9C6"/>
<path d="M8.3125 8.75H11.375V9.625H8.3125V8.75Z" fill="#9BA9C6"/>
<path d="M2.625 4.375H5.6875V5.25H2.625V4.375Z" fill="#9BA9C6"/>
<path d="M2.625 6.5625H5.6875V7.4375H2.625V6.5625Z" fill="#9BA9C6"/>
<path d="M2.625 8.75H5.6875V9.625H2.625V8.75Z" fill="#9BA9C6"/>
<path d="M12.25 2.1875H1.75C1.51801 2.18773 1.29558 2.27999 1.13154 2.44404C0.967493 2.60808 0.875232 2.83051 0.875 3.0625V10.9375C0.875232 11.1695 0.967493 11.3919 1.13154 11.556C1.29558 11.72 1.51801 11.8123 1.75 11.8125H12.25C12.482 11.8123 12.7044 11.72 12.8685 11.556C13.0325 11.3919 13.1248 11.1695 13.125 10.9375V3.0625C13.1248 2.83051 13.0325 2.60808 12.8685 2.44404C12.7044 2.27999 12.482 2.18773 12.25 2.1875ZM1.75 3.0625H6.5625V10.9375H1.75V3.0625ZM7.4375 10.9375V3.0625H12.25V10.9375H7.4375Z" fill="#9BA9C6"/>
</svg>
