<svg width="20" height="21" viewBox="0 0 20 21" fill="none" xmlns="http://www.w3.org/2000/svg">
<mask id="mask0_1547:16767" style="mask-type:alpha" maskUnits="userSpaceOnUse" x="0" y="0" width="20" height="21">
<circle cx="10" cy="10.5" r="9.5" fill="white" stroke="#D6DAE1"/>
</mask>
<g mask="url(#mask0_1547:16767)">
<circle cx="10" cy="10.5" r="10" fill="#009B3A"/>
<path d="M20 0.5H0V17.5H20V0.5Z" fill="#0038A8"/>
<path d="M20 10.5H0V20.5H20V10.5Z" fill="#CE1126"/>
<path d="M13 10.5L0 18.5V2.5" fill="white"/>
<path d="M1.38451 4.25537L1.82073 4.63193L2.3259 4.35349L2.10182 4.88517L2.52213 5.28029L1.94669 5.23123L1.70273 5.75496L1.57146 5.19278L1 5.12118L1.49323 4.82285L1.38451 4.25537Z" fill="#FCD116"/>
<path d="M10.9003 9.7002L10.9122 10.277L11.4572 10.4666L10.9122 10.6562L10.9003 11.2329L10.5516 10.7728L10 10.9399L10.3301 10.4666L10 9.99322L10.5516 10.1603L10.9003 9.7002Z" fill="#FCD116"/>
<path d="M1.70272 14.7461L1.94802 15.2685L2.52345 15.2194L2.10315 15.6146L2.32722 16.1462L1.82206 15.8678L1.38451 16.2457L1.49323 15.6795L1 15.3799L1.57279 15.3083L1.70272 14.7461Z" fill="#FCD116"/>
<path d="M5.0615 7.5L4.87322 7.68828L4.96603 9.11362C4.93421 9.11627 4.90239 9.11892 4.87189 9.1229L4.70085 7.82219L4.54705 7.976L4.77775 9.13881C4.58682 9.17593 4.41048 9.25151 4.25535 9.35493L3.59638 8.36846H3.37893L4.17845 9.40929C4.15326 9.42918 4.12939 9.44907 4.10552 9.46896L3.16281 8.39365H2.89631V8.66281L3.97161 9.60552C3.95039 9.62939 3.93051 9.65326 3.91194 9.67845L2.87111 8.87893V9.09638L3.85758 9.75535C3.75284 9.91048 3.67859 10.0881 3.64146 10.2778L2.47865 10.047L2.32219 10.2009L3.6229 10.3719C3.61892 10.4037 3.61627 10.4342 3.61362 10.466L2.18828 10.3732L2 10.5615L2.18828 10.7498L3.61362 10.657C3.61627 10.6888 3.61892 10.7206 3.6229 10.7511L2.32219 10.9221L2.476 11.0759L3.63881 10.8452C3.67593 11.0362 3.75151 11.2125 3.85493 11.3676L2.86846 12.0266V12.2427L3.90929 11.4432C3.92918 11.4684 3.94907 11.4923 3.96896 11.5161L2.89365 12.4589V12.7254H3.16016L4.10287 11.6501C4.12674 11.6713 4.1506 11.6912 4.1758 11.7097L3.37628 12.7505H3.59373L4.2527 11.7641C4.40783 11.8688 4.5855 11.9431 4.7751 11.9815L4.5444 13.1443L4.6982 13.2981L4.86924 11.9974C4.89974 12.0014 4.93156 12.0041 4.96338 12.0067L4.87057 13.4321L5.05884 13.6203L5.24712 13.4321L5.15431 12.0067C5.18613 12.0041 5.21795 12.0014 5.24845 11.9974L5.41949 13.2981L5.57329 13.1443L5.34259 11.9815C5.53351 11.9444 5.70986 11.8688 5.86499 11.7654L6.52396 12.7519H6.74141L5.94189 11.711C5.96708 11.6912 5.99095 11.6713 6.01481 11.6514L6.95753 12.7267H7.22403V12.4602L6.14873 11.5175C6.16995 11.4936 6.18983 11.4697 6.2084 11.4445L7.24922 12.2441V12.0266L6.26276 11.3676C6.3675 11.2125 6.44175 11.0348 6.47888 10.8452L7.64169 11.0759L7.79549 10.9221L6.49877 10.7498C6.50274 10.718 6.5054 10.6875 6.50805 10.6556L7.93339 10.7484L8.12166 10.5602L7.93471 10.3732L6.50937 10.466C6.50672 10.4342 6.50407 10.4024 6.50009 10.3719L7.8008 10.2009L7.64699 10.047L6.48418 10.2778C6.44706 10.0868 6.37148 9.91048 6.26806 9.75535L7.25453 9.09638V8.87893L6.2137 9.67845C6.19381 9.65326 6.17392 9.62939 6.15403 9.60552L7.22934 8.66281V8.39631H6.96283L6.01747 9.47161C5.9936 9.45039 5.96973 9.43051 5.94454 9.41194L6.74406 8.37111H6.52528L5.86631 9.35758C5.71118 9.25283 5.53351 9.17858 5.34391 9.14146L5.57462 7.97865L5.42081 7.82484L5.24977 9.12555C5.21795 9.12157 5.18746 9.11892 5.15563 9.11627L5.24845 7.69093L5.0615 7.5Z" fill="#FCD116"/>
</g>
</svg>
