<svg width="14" height="14" viewBox="0 0 14 14" fill="none" xmlns="http://www.w3.org/2000/svg">
<path d="M0 7C0 3.13401 3.13401 0 7 0C10.866 0 14 3.13401 14 7C14 10.866 10.866 14 7 14C3.13401 14 0 10.866 0 7Z" fill="#AEB4C6"/>
<path d="M6.25916 8.53717C6.25916 8.08877 6.31735 7.7314 6.43375 7.46506C6.55014 7.19872 6.77941 6.90709 7.12154 6.59018C7.4672 6.26989 7.68588 6.04232 7.77759 5.90747C7.91867 5.70181 7.98921 5.4793 7.98921 5.23993C7.98921 4.92301 7.90633 4.68196 7.74055 4.51676C7.5783 4.34819 7.33846 4.2639 7.02102 4.2639C6.71768 4.2639 6.47255 4.3465 6.28561 4.5117C6.1022 4.67353 6.01049 4.89436 6.01049 5.17418H4.72485C4.73191 4.57744 4.94354 4.10544 5.35974 3.75819C5.77947 3.41093 6.33323 3.2373 7.02102 3.2373C7.72997 3.2373 8.28197 3.40925 8.677 3.75313C9.07557 4.09702 9.27485 4.57744 9.27485 5.19441C9.27485 5.74395 9.00679 6.28506 8.47067 6.81775L7.81991 7.42966C7.58712 7.68252 7.4672 8.05169 7.46014 8.53717H6.25916ZM6.16921 10.1099C6.16921 9.91102 6.23447 9.75088 6.36497 9.62951C6.49547 9.50477 6.67183 9.4424 6.89404 9.4424C7.11978 9.4424 7.2979 9.50645 7.4284 9.63457C7.5589 9.75931 7.62416 9.91777 7.62416 10.1099C7.62416 10.2954 7.56067 10.4504 7.43369 10.5752C7.30671 10.6999 7.12683 10.7623 6.89404 10.7623C6.66125 10.7623 6.48136 10.6999 6.35439 10.5752C6.23094 10.4504 6.16921 10.2954 6.16921 10.1099Z" fill="white"/>
</svg>
